<?xml version="1.0" encoding="UTF-8"?>
<svg version="1.1" xmlns="http://www.w3.org/2000/svg" width="274" height="226">
<path d="M0 0 C90.42 0 180.84 0 274 0 C274 74.58 274 149.16 274 226 C183.58 226 93.16 226 0 226 C0 151.42 0 76.84 0 0 Z " fill="#FCFEFC" transform="translate(0,0)"/>
<path d="M0 0 C-1.56282993 3.96648065 -4.1308103 6.11093398 -7.3125 8.875 C-11.26651415 12.38276059 -14.79709848 15.80309456 -18 20 C-20.68260721 19.5340993 -23.14034521 18.94957293 -25.70703125 18.02734375 C-43.32771508 11.84348112 -62.03212902 13.38894418 -78.70703125 21.28125 C-90.04112361 27.42129373 -98.91726799 36.74531938 -105 48 C-105.48210937 48.89203125 -105.96421875 49.7840625 -106.4609375 50.703125 C-113.37825149 64.05793929 -115.49165295 80.50668874 -111.9453125 95.31640625 C-105.0328036 114.93993359 -92.82570858 130.71035061 -74 140 C-58.1601657 146.32203913 -37.55603335 146.25157288 -21.91796875 139.7109375 C-15.26038691 136.57894303 -9.52100314 132.84844458 -4 128 C-3.24976563 127.36707031 -2.49953125 126.73414063 -1.7265625 126.08203125 C5.21979774 119.76392544 9.10823833 112.39740922 13 104 C13.45761719 103.07960938 13.91523438 102.15921875 14.38671875 101.2109375 C18.89882358 90.47687759 18.54798988 75.38924874 16.2734375 64.046875 C16 61 16 61 17.36328125 58.56640625 C18.00652344 57.90511719 18.64976562 57.24382812 19.3125 56.5625 C19.94800781 55.88316406 20.58351562 55.20382813 21.23828125 54.50390625 C23 53 23 53 25 53 C25.24878906 52.41863281 25.49757812 51.83726563 25.75390625 51.23828125 C27.17669815 48.68260803 28.75074191 47.12178323 30.9375 45.1875 C31.62714844 44.56230469 32.31679687 43.93710938 33.02734375 43.29296875 C34.00380859 42.65294922 34.00380859 42.65294922 35 42 C38 43 38 43 39.60546875 45.91015625 C48.47255145 67.71772302 46.18577226 95.54598541 37.21508789 116.84765625 C35.8720274 119.92993422 34.45277123 122.96795218 33 126 C32.34 126 31.68 126 31 126 C30.79375 126.66 30.5875 127.32 30.375 128 C27.03247391 135.2927842 21.24710964 141.06426663 15.85546875 146.8984375 C13.9622991 148.86145871 13.9622991 148.86145871 13 151 C11.28515625 152.078125 11.28515625 152.078125 9.0625 153.25 C5.72898408 155.03730964 2.51119339 156.91978115 -0.6875 158.9375 C-20.91743093 171.0257383 -44.86640702 175.74996181 -68 170.3125 C-70.68923945 169.60821243 -73.34539803 168.82436752 -76 168 C-77.1034375 167.67257813 -78.206875 167.34515625 -79.34375 167.0078125 C-102.11805553 159.28484255 -119.46970757 142.02895526 -130.515625 121.1328125 C-141.97518319 97.31626084 -143.13959658 71.04577747 -134.59765625 46.12109375 C-129.9195591 33.49113166 -122.56751499 23.33091994 -113 14 C-112.52691406 13.52191895 -112.05382812 13.04383789 -111.56640625 12.55126953 C-81.5247856 -17.74476864 -36.42159433 -18.90823195 0 0 Z " fill="#029E4E" transform="translate(166,43)"/>
<path d="M0 0 C0 1.65 0 3.3 0 5 C-0.83660156 5.30550781 -1.67320312 5.61101563 -2.53515625 5.92578125 C-19.620992 12.64280416 -36.71844163 25.47178197 -48 40 C-49.65091968 41.68226626 -51.31783047 43.34898176 -53 45 C-70.80603124 63.43300417 -85.23279387 85.15014096 -98.68066406 106.87255859 C-99.83851279 108.73960037 -101.00618389 110.59981029 -102.1796875 112.45703125 C-106.05827124 118.64874626 -109.73064005 124.94583164 -113.3125 131.3125 C-113.73354004 132.0537915 -114.15458008 132.79508301 -114.58837891 133.55883789 C-116.55306575 137.0906058 -118.28253944 140.55486399 -119.66796875 144.35546875 C-121 148 -121 148 -123 151 C-124.75 150.875 -124.75 150.875 -127 150 C-127.92667975 148.66146259 -128.84018112 147.31200754 -129.6875 145.921875 C-131.32963145 143.51732538 -133.21937504 141.45830291 -135.1875 139.3125 C-138.41155157 135.79295434 -141.50102771 132.21326342 -144.5 128.5 C-147.4081338 124.9052235 -150.38541332 121.41739372 -153.5 118 C-156.61458668 114.58260628 -159.5918662 111.0947765 -162.5 107.5 C-165.49107225 103.80299287 -168.55790645 100.2125437 -171.75 96.6875 C-172.85214844 95.46740234 -172.85214844 95.46740234 -173.9765625 94.22265625 C-175.21093984 92.86674755 -176.45369944 91.51833279 -177.7109375 90.18359375 C-179.125 88.625 -179.125 88.625 -181 86 C-180.81303011 83.27383647 -180.25828406 82.24534982 -178.26928711 80.35595703 C-177.15952515 79.56487549 -177.15952515 79.56487549 -176.02734375 78.7578125 C-175.20943359 78.16613281 -174.39152344 77.57445313 -173.54882812 76.96484375 C-172.68708984 76.35769531 -171.82535156 75.75054687 -170.9375 75.125 C-169.25892401 73.91953616 -167.58053681 72.71380938 -165.90234375 71.5078125 C-165.07976074 70.92676758 -164.25717773 70.34572266 -163.40966797 69.74707031 C-160.44507666 67.59766652 -157.60669824 65.30513054 -154.79125977 62.96435547 C-153 62 -153 62 -150.93969727 62.09985352 C-148.40537253 63.27594606 -147.71788598 64.49480852 -146.3359375 66.91015625 C-145.61905762 68.13726318 -145.61905762 68.13726318 -144.88769531 69.38916016 C-144.13891113 70.71246338 -144.13891113 70.71246338 -143.375 72.0625 C-142.31661054 73.88499022 -141.25669067 75.70659246 -140.1953125 77.52734375 C-139.66454102 78.44370605 -139.13376953 79.36006836 -138.58691406 80.30419922 C-135.82632986 84.99379472 -132.89282966 89.57396683 -129.94677734 94.14868164 C-127 98.78690187 -127 98.78690187 -127 101 C-123.17817673 97.28278868 -119.68760897 93.38483912 -116.25 89.3125 C-111.91613498 84.21548482 -107.51842324 79.1911155 -103.01953125 74.23828125 C-101.10847573 72.12022552 -99.23794417 69.97285433 -97.375 67.8125 C-94.56917064 64.58351772 -91.60078968 61.5751379 -88.546875 58.58203125 C-86.85735778 56.91456491 -86.85735778 56.91456491 -85.0625 54.5 C-82.64885346 51.57436783 -79.9423646 49.2688551 -77.0625 46.8125 C-75.17431113 45.15318251 -73.43006635 43.43458814 -71.6875 41.625 C-67.12967161 37.00557934 -62.06232201 33.0472715 -57 29 C-55.94806844 28.12377497 -54.89731395 27.24613518 -53.84765625 26.3671875 C-40.4718547 15.32165806 -25.40037571 6.83557439 -9.1875 0.6875 C-8.29417969 0.34074219 -7.40085938 -0.00601562 -6.48046875 -0.36328125 C-3.84633458 -1.03944482 -2.5249992 -0.91229575 0 0 Z " fill="#04A24E" transform="translate(248,16)"/>
<path d="M0 0 C3 1 3 1 4.60546875 3.91015625 C13.47255145 25.71772302 11.18577226 53.54598541 2.21508789 74.84765625 C0.8720274 77.92993422 -0.54722877 80.96795218 -2 84 C-2.66 84 -3.32 84 -4 84 C-4.309375 84.99 -4.309375 84.99 -4.625 86 C-7.96752609 93.2927842 -13.75289036 99.06426663 -19.14453125 104.8984375 C-21.0377009 106.86145871 -21.0377009 106.86145871 -22 109 C-22.66 108.67 -23.32 108.34 -24 108 C-23.67 106.35 -23.34 104.7 -23 103 C-23.78375 102.896875 -24.5675 102.79375 -25.375 102.6875 C-28 102 -28 102 -30 99 C-30.14221065 96.39754502 -30.18802932 93.90882316 -30.125 91.3125 C-30.11597656 90.61060547 -30.10695312 89.90871094 -30.09765625 89.18554688 C-30.07413704 87.45688475 -30.03826713 85.72839855 -30 84 C-27.36 84 -24.72 84 -22 84 C-22 82.02 -22 80.04 -22 78 C-24.64 78 -27.28 78 -30 78 C-29.74307373 77.47156494 -29.48614746 76.94312988 -29.22143555 76.39868164 C-28.03778646 73.95599011 -26.86262201 71.50930443 -25.6875 69.0625 C-25.28337891 68.23169922 -24.87925781 67.40089844 -24.46289062 66.54492188 C-19.7240279 56.64339569 -17.53015243 48.93608069 -17.75 37.875 C-17.75515625 36.82957031 -17.7603125 35.78414062 -17.765625 34.70703125 C-17.80922129 30.39644766 -17.87198561 26.26807974 -18.72265625 22.03515625 C-19 19 -19 19 -17.63671875 16.56640625 C-16.67185547 15.57447266 -16.67185547 15.57447266 -15.6875 14.5625 C-15.05199219 13.88316406 -14.41648438 13.20382813 -13.76171875 12.50390625 C-12 11 -12 11 -10 11 C-9.75121094 10.41863281 -9.50242188 9.83726563 -9.24609375 9.23828125 C-7.82330185 6.68260803 -6.24925809 5.12178323 -4.0625 3.1875 C-3.37285156 2.56230469 -2.68320313 1.93710938 -1.97265625 1.29296875 C-1.32167969 0.86628906 -0.67070312 0.43960938 0 0 Z " fill="#71C34E" transform="translate(201,85)"/>
<path d="M0 0 C0.556875 0.0928125 1.11375 0.185625 1.6875 0.28125 C1.6875 2.26125 1.6875 4.24125 1.6875 6.28125 C-0.9525 6.28125 -3.5925 6.28125 -6.3125 6.28125 C-6.19852456 8.71972451 -6.07179026 11.15638174 -5.9375 13.59375 C-5.9065625 14.28404297 -5.875625 14.97433594 -5.84375 15.68554688 C-5.63125081 19.35115789 -5.39316139 21.16025792 -3.3125 24.28125 C-1.25324861 25.00507467 -1.25324861 25.00507467 0.6875 25.28125 C0.91015625 27.57421875 0.91015625 27.57421875 0.6875 30.28125 C-10.19144972 43.40085061 -33.12685369 49.96965232 -49.3125 52.28125 C-53.02736737 52.49191556 -56.71837577 52.47415536 -60.4375 52.40625 C-61.39398438 52.39722656 -62.35046875 52.38820312 -63.3359375 52.37890625 C-65.66173525 52.35564827 -67.98697294 52.32297213 -70.3125 52.28125 C-70.3125 51.95125 -70.3125 51.62125 -70.3125 51.28125 C-65.3625 50.78625 -65.3625 50.78625 -60.3125 50.28125 C-60.3125 49.95125 -60.3125 49.62125 -60.3125 49.28125 C-62.9525 48.95125 -65.5925 48.62125 -68.3125 48.28125 C-68.8075 46.79625 -68.8075 46.79625 -69.3125 45.28125 C-68.8175 44.78625 -68.8175 44.78625 -68.3125 44.28125 C-68.02775984 41.21238383 -67.86378201 38.14349703 -67.69140625 35.06640625 C-67.3125 32.28125 -67.3125 32.28125 -65.3125 30.28125 C-64.3225 30.28125 -63.3325 30.28125 -62.3125 30.28125 C-62.3125 29.29125 -62.3125 28.30125 -62.3125 27.28125 C-63.364375 27.920625 -64.41625 28.56 -65.5 29.21875 C-68.42078412 30.89879452 -70.9296743 31.87121052 -74.3125 32.28125 C-72.34867993 30.77565461 -70.52986634 29.38993317 -68.3125 28.28125 C-68.3125 27.62125 -68.3125 26.96125 -68.3125 26.28125 C-72.6025 25.95125 -76.8925 25.62125 -81.3125 25.28125 C-81.6425 24.29125 -81.9725 23.30125 -82.3125 22.28125 C-80.89324219 22.4978125 -80.89324219 22.4978125 -79.4453125 22.71875 C-58.70885003 25.70499171 -39.90317859 25.77355502 -21.83984375 13.6171875 C-17.89663851 10.65471084 -14.60074789 7.5139007 -11.3125 3.84375 C-7.68183203 0.04472444 -5.15650115 -0.48777714 0 0 Z " fill="#41B24D" transform="translate(177.3125,162.71875)"/>
<path d="M0 0 C0 1.65 0 3.3 0 5 C-0.83660156 5.30550781 -1.67320312 5.61101563 -2.53515625 5.92578125 C-19.620992 12.64280416 -36.71844163 25.47178197 -48 40 C-49.65091968 41.68226626 -51.31783047 43.34898176 -53 45 C-69.41698951 61.99505252 -83.03354501 81.88135914 -95.61181641 101.8203125 C-96.71713906 103.56238365 -97.85507972 105.28369361 -99 107 C-99.33 107 -99.66 107 -100 107 C-99.67 104.69 -99.34 102.38 -99 100 C-98.01 100 -97.02 100 -96 100 C-96.16081055 99.27619141 -96.32162109 98.55238281 -96.48730469 97.80664062 C-97.29598536 93.3796916 -97.22529808 88.98957425 -97.25 84.5 C-97.270625 83.56285156 -97.29125 82.62570313 -97.3125 81.66015625 C-97.34113589 76.61308068 -97.3066764 73.10724016 -94 69 C-94.66 69 -95.32 69 -96 69 C-96 69.66 -96 70.32 -96 71 C-97.32 70.67 -98.64 70.34 -100 70 C-98.66195312 68.67935547 -98.66195312 68.67935547 -97.296875 67.33203125 C-96.11444899 66.15898957 -94.93216481 64.98580491 -93.75 63.8125 C-93.16347656 63.23435547 -92.57695312 62.65621094 -91.97265625 62.06054688 C-88.74394225 58.84997172 -85.8362435 55.5681773 -83 52 C-81.76092021 50.84011913 -80.49027205 49.71285446 -79.1875 48.625 C-76.56268848 46.38619018 -74.0801308 44.10965506 -71.6875 41.625 C-67.12967161 37.00557934 -62.06232201 33.0472715 -57 29 C-55.94806844 28.12377497 -54.89731395 27.24613518 -53.84765625 26.3671875 C-40.4718547 15.32165806 -25.40037571 6.83557439 -9.1875 0.6875 C-8.29417969 0.34074219 -7.40085937 -0.00601562 -6.48046875 -0.36328125 C-3.84633458 -1.03944482 -2.5249992 -0.91229575 0 0 Z " fill="#47B44E" transform="translate(248,16)"/>
<path d="M0 0 C1.23862793 0.00418945 2.47725586 0.00837891 3.75341797 0.01269531 C20.77810806 0.22279389 34.30299748 4.52033273 49.3125 12.3125 C47.74967007 16.27898065 45.1816897 18.42343398 42 21.1875 C38.04598585 24.69526059 34.51540152 28.11559456 31.3125 32.3125 C28.66402035 31.85586558 26.26391529 31.29408662 23.74609375 30.33984375 C11.06005839 25.72523636 -2.38978786 26.95302764 -15.6875 27.3125 C-15.6875 26.6525 -15.6875 25.9925 -15.6875 25.3125 C-13.0475 25.3125 -10.4075 25.3125 -7.6875 25.3125 C-7.6875 24.6525 -7.6875 23.9925 -7.6875 23.3125 C-9.0075 22.9825 -10.3275 22.6525 -11.6875 22.3125 C-10.0375 21.9825 -8.3875 21.6525 -6.6875 21.3125 C-6.6875 15.0425 -6.6875 8.7725 -6.6875 2.3125 C-16.0925 3.3025 -16.0925 3.3025 -25.6875 4.3125 C-19.839658 -1.535342 -7.64645426 -0.03513711 0 0 Z " fill="#40B24E" transform="translate(116.6875,30.6875)"/>
<path d="M0 0 C3.96 0 7.92 0 12 0 C12.06058594 1.25296875 12.12117188 2.5059375 12.18359375 3.796875 C12.26802256 5.44792724 12.35266939 7.09896835 12.4375 8.75 C12.47681641 9.575 12.51613281 10.4 12.55664062 11.25 C12.61948242 12.44882813 12.61948242 12.44882813 12.68359375 13.671875 C12.72025146 14.4050293 12.75690918 15.13818359 12.79467773 15.89355469 C13.00447884 18.04594939 13.29942891 19.95179296 14 22 C17.49685546 23.89829296 21.0870104 24.45400145 25 25 C25 23.02 25 21.04 25 19 C24.21625 18.896875 23.4325 18.79375 22.625 18.6875 C20 18 20 18 18 15 C17.8046875 12.30078125 17.8046875 12.30078125 17.875 9.3125 C17.89304687 8.31863281 17.91109375 7.32476562 17.9296875 6.30078125 C17.95289062 5.54152344 17.97609375 4.78226563 18 4 C18.53367187 4.37511719 19.06734375 4.75023437 19.6171875 5.13671875 C24.58131217 8.54633379 29.53538244 11.35616711 35.03125 13.82421875 C37 15 37 15 38 18 C42.29 18.33 46.58 18.66 51 19 C51 20.32 51 21.64 51 23 C49.02 23.99 49.02 23.99 47 25 C49.91517292 23.92598892 51.77810176 23.22189824 54 21 C54.99 21 55.98 21 57 21 C57 21.99 57 22.98 57 24 C56.35546875 24.20496094 55.7109375 24.40992188 55.046875 24.62109375 C52.69382701 25.86365517 52.69382701 25.86365517 52.390625 28.78515625 C52.34421875 29.86667969 52.2978125 30.94820312 52.25 32.0625 C52.16492188 33.68865234 52.16492188 33.68865234 52.078125 35.34765625 C51.9574366 38.68936843 51.9574366 38.68936843 53 42 C54.670625 41.9071875 54.670625 41.9071875 56.375 41.8125 C58.169375 41.9053125 58.169375 41.9053125 60 42 C60.66 42.99 61.32 43.98 62 45 C50.2848612 45.52196163 40.20042176 44.5001318 29 41 C27.700625 40.61908203 27.700625 40.61908203 26.375 40.23046875 C17.68900861 37.25199535 9.30059418 31.51931023 2 26 C2 25.67 2 25.34 2 25 C3.65 25 5.3 25 7 25 C7 23.02 7 21.04 7 19 C6.21625 18.896875 5.4325 18.79375 4.625 18.6875 C2 18 2 18 0 15 C-0.14221065 12.39754502 -0.18802932 9.90882316 -0.125 7.3125 C-0.11597656 6.61060547 -0.10695312 5.90871094 -0.09765625 5.18554688 C-0.07413704 3.45688475 -0.03826713 1.72839855 0 0 Z " fill="#03A550" transform="translate(58,169)"/>
<path d="M0 0 C1.5 1.375 1.5 1.375 3 3 C3 3.66 3 4.32 3 5 C4.32 5.33 5.64 5.66 7 6 C7.66 4.02 8.32 2.04 9 0 C11.31 0.33 13.62 0.66 16 1 C16 2.98 16 4.96 16 7 C16.66 7 17.32 7 18 7 C18.2475 6.38125 18.495 5.7625 18.75 5.125 C20.25881684 2.56001137 21.27187146 2.0970766 24 1 C29.32264441 0.3419276 34.0226822 0.95802347 39 3 C38.67 4.98 38.34 6.96 38 9 C37.360625 8.835 36.72125 8.67 36.0625 8.5 C32.02413348 7.84067485 28.08192742 7.91996221 24 8 C24.54156318 10.52432413 24.54156318 10.52432413 26 13 C28.85581649 14.04123065 28.85581649 14.04123065 32.125 14.3125 C33.22070312 14.45300781 34.31640625 14.59351563 35.4453125 14.73828125 C36.28835937 14.82464844 37.13140625 14.91101563 38 15 C27.09937204 24.81056516 13.27211026 27.68323932 -1 27 C-1.0271045 23.95827281 -1.04688964 20.91679003 -1.0625 17.875 C-1.07087891 17.0190625 -1.07925781 16.163125 -1.08789062 15.28125 C-1.10541347 10.72531074 -0.88796352 6.48876048 0 2 C0 1.34 0 0.68 0 0 Z " fill="#F8FBF8" transform="translate(118,161)"/>
<path d="M0 0 C2.31 0 4.62 0 7 0 C7.33 7.26 7.66 14.52 8 22 C8.33 21.34 8.66 20.68 9 20 C9.66 20 10.32 20 11 20 C11.2475 19.4225 11.495 18.845 11.75 18.25 C13.27717864 15.50107845 14.44886792 13.87978153 17 12 C19.75765038 11.66189727 22.20473086 11.81364872 25 12 C19.53302961 19.50797267 19.53302961 19.50797267 16.5625 22.25 C16.046875 22.8275 15.53125 23.405 15 24 C15.59921358 28.37671862 18.31466311 31.28324742 21 34.625 C25.90601504 40.81203008 25.90601504 40.81203008 27 43 C23.83478023 43.50869603 22.04685548 43.778469 19 43 C15.36900652 39.91708101 12.14031365 36.2806273 10 32 C9.34 32 8.68 32 8 32 C7.67 35.63 7.34 39.26 7 43 C4.69 43 2.38 43 0 43 C0 28.81 0 14.62 0 0 Z " fill="#C0C0C0" transform="translate(241,150)"/>
<path d="M0 0 C0 3.63 0 7.26 0 11 C1.299375 10.79375 2.59875 10.5875 3.9375 10.375 C7.33964471 10.38039167 8.76829382 10.833891 11.56640625 12.83984375 C15.91478103 17.25801587 18.45594705 20.65170573 18.875 26.9375 C18.85179688 27.83339844 18.82859375 28.72929687 18.8046875 29.65234375 C18.79419977 32.05094376 18.79419977 32.05094376 20.3203125 33.75390625 C22.09260014 35.20379013 22.09260014 35.20379013 25 36 C25 37.98 25 39.96 25 42 C20.35525026 42.32405231 17.70894272 41.88473323 14 39 C12.23946664 36.13103911 11.75691343 34.01605964 11.8046875 30.671875 C11.81113281 29.87265625 11.81757812 29.0734375 11.82421875 28.25 C11.84097656 27.425 11.85773438 26.6 11.875 25.75 C11.88402344 24.90953125 11.89304687 24.0690625 11.90234375 23.203125 C11.92584183 21.13529396 11.96171092 19.06761005 12 17 C8.04 17 4.08 17 0 17 C0.11397544 19.43847451 0.24070974 21.87513174 0.375 24.3125 C0.4059375 25.00279297 0.436875 25.69308594 0.46875 26.40429688 C0.68124919 30.06990789 0.91933861 31.87900792 3 35 C5.05925139 35.72382467 5.05925139 35.72382467 7 36 C7 37.98 7 39.96 7 42 C4.01148537 42.51023421 1.82100481 42.37363093 -0.95703125 41.109375 C-3.51062898 39.21628015 -4.612968 37.90271625 -6 35 C-6.87380722 28.71138419 -6.39725046 22.31186843 -6 16 C-7.32 16 -8.64 16 -10 16 C-10 14.35 -10 12.7 -10 11 C-8.68 11 -7.36 11 -6 11 C-6 8.03 -6 5.06 -6 2 C-2 0 -2 0 0 0 Z " fill="#017839" transform="translate(58,152)"/>
<path d="M0 0 C6.26693682 -0.24576223 10.98429268 -0.35480645 16.12109375 3.65625 C19.64835211 8.05615647 18.21599381 13.60015475 18 19 C12.06 19 6.12 19 0 19 C0 19.99 0 20.98 0 22 C-3.59391114 20.66511872 -6.75490696 19.03977277 -10 17 C-9.34 16.67 -8.68 16.34 -8 16 C-7.72250923 14.03647912 -7.72250923 14.03647912 -7.6875 11.75 C-7.35966178 7.94343398 -7.0735906 7.09245999 -4.5625 3.9375 C-2 2 -2 2 0 2 C0 1.34 0 0.68 0 0 Z " fill="#BDBFBE" transform="translate(94,162)"/>
<path d="M0 0 C2.19133289 1.22456838 3.69075393 2.11581124 5.125 4.1875 C4.8125 6.375 4.8125 6.375 4.125 8.1875 C2.145 8.5175 0.165 8.8475 -1.875 9.1875 C-2.535 8.1975 -3.195 7.2075 -3.875 6.1875 C-6.91695427 5.85409529 -6.91695427 5.85409529 -9.875 6.1875 C-11.06841752 7.16082261 -11.06841752 7.16082261 -10.98852539 8.95336914 C-10.98328857 9.70223389 -10.97805176 10.45109863 -10.97265625 11.22265625 C-10.96943359 12.03154297 -10.96621094 12.84042969 -10.96289062 13.67382812 C-10.95451172 14.52396484 -10.94613281 15.37410156 -10.9375 16.25 C-10.93298828 17.10400391 -10.92847656 17.95800781 -10.92382812 18.83789062 C-10.91200373 20.95445663 -10.89406769 23.07098685 -10.875 25.1875 C-10.23530273 25.0440918 -9.59560547 24.90068359 -8.93652344 24.75292969 C-7.35933805 24.40023734 -5.78147665 24.0505609 -4.203125 23.703125 C-2.44527986 23.31380359 -0.69056891 22.91029272 1.0625 22.5 C3.125 22.1875 3.125 22.1875 5.125 23.1875 C4.5626049 26.44939156 3.7109495 28.09884848 1.125 30.1875 C-3.49312875 31.72687625 -8.05225495 31.70925897 -12.875 31.1875 C-16.49191275 29.08969061 -17.55791409 28.13875774 -18.875 24.1875 C-19.1750535 21.06770323 -19.19826119 17.94504965 -19.25 14.8125 C-19.28738281 13.96171875 -19.32476562 13.1109375 -19.36328125 12.234375 C-19.42684347 7.70027014 -19.37426463 5.8201187 -16.4765625 2.1484375 C-11.38345196 -1.69051369 -6.08399601 -1.71939018 0 0 Z " fill="#C0C0C0" transform="translate(230.875,162.8125)"/>
<path d="M0 0 C2.31 0 4.62 0 7 0 C7.02505615 0.68626465 7.0501123 1.3725293 7.07592773 2.07958984 C7.19171427 5.17825817 7.31451885 8.27660923 7.4375 11.375 C7.47681641 12.45523438 7.51613281 13.53546875 7.55664062 14.6484375 C7.59853516 15.6796875 7.64042969 16.7109375 7.68359375 17.7734375 C7.72025146 18.72653809 7.75690918 19.67963867 7.79467773 20.66162109 C7.85763465 23.02132349 7.85763465 23.02132349 9 25 C11.35599235 25.46751788 11.35599235 25.46751788 14.0625 25.625 C16.5065625 25.810625 16.5065625 25.810625 19 26 C19 19.73 19 13.46 19 7 C21.43378763 9.43378763 22.9424887 11.31058948 24.6875 14.1875 C25.34298828 15.26064453 25.34298828 15.26064453 26.01171875 16.35546875 C26.33785156 16.89816406 26.66398437 17.44085938 27 18 C26.67 18.33 26.34 18.66 26 19 C25.76636119 20.84891946 25.58696365 22.70488031 25.4375 24.5625 C25.35371094 25.57441406 25.26992188 26.58632812 25.18359375 27.62890625 C25.09271484 28.80259766 25.09271484 28.80259766 25 30 C21.02053841 31.87443798 17.82104886 32.27031772 13.4375 32.25 C11.76494141 32.25773437 11.76494141 32.25773437 10.05859375 32.265625 C7.11333477 32.00984261 5.42667427 31.64852457 3 30 C2.25 27.875 2.25 27.875 2 26 C1.34 26 0.68 26 0 26 C0 17.42 0 8.84 0 0 Z " fill="#BEC0BF" transform="translate(19,162)"/>
<path d="M0 0 C0.53367187 0.37511719 1.06734375 0.75023437 1.6171875 1.13671875 C6.58131217 4.54633379 11.53538244 7.35616711 17.03125 9.82421875 C19 11 19 11 20 14 C24.29 14.33 28.58 14.66 33 15 C33 16.32 33 17.64 33 19 C27.82506879 22.15050824 21.84293135 21.74700768 16 21 C13.36832584 19.5898001 12.65453961 18.57372828 11 16 C11 15.34 11 14.68 11 14 C10.34 14 9.68 14 9 14 C9 16.64 9 19.28 9 22 C6.36 22 3.72 22 1 22 C1 21.67 1 21.34 1 21 C2.98 21 4.96 21 7 21 C7 19.02 7 17.04 7 15 C5.824375 14.8453125 5.824375 14.8453125 4.625 14.6875 C2 14 2 14 0 11 C-0.1953125 8.30078125 -0.1953125 8.30078125 -0.125 5.3125 C-0.10695313 4.31863281 -0.08890625 3.32476562 -0.0703125 2.30078125 C-0.04710938 1.54152344 -0.02390625 0.78226563 0 0 Z " fill="#10A655" transform="translate(76,173)"/>
<path d="M0 0 C0 1.98 0 3.96 0 6 C-2.64 6 -5.28 6 -8 6 C-7.88602456 8.43847451 -7.75929026 10.87513174 -7.625 13.3125 C-7.5940625 14.00279297 -7.563125 14.69308594 -7.53125 15.40429688 C-7.31875081 19.06990789 -7.08066139 20.87900792 -5 24 C-2.94074861 24.72382467 -2.94074861 24.72382467 -1 25 C-0.957279 26.66611905 -0.95936168 28.33382885 -1 30 C-1.33 30.33 -1.66 30.66 -2 31 C-7.23789086 30.69781399 -10.31174032 29.79673791 -14 26 C-16.24273122 19.90845263 -16.54201067 9.59017752 -13.9765625 3.6171875 C-10.11223185 -0.80224038 -5.52025442 -0.66243053 0 0 Z " fill="#478E3A" transform="translate(179,163)"/>
<path d="M0 0 C5.70939788 -0.45675183 8.55127459 0.37894444 13 4 C15.29755922 7.44633882 15.23643976 8.71068391 15.1953125 12.76171875 C15.18564453 14.43911133 15.18564453 14.43911133 15.17578125 16.15039062 C15.15902344 17.31763672 15.14226563 18.48488281 15.125 19.6875 C15.11597656 20.86634766 15.10695313 22.04519531 15.09765625 23.25976562 C15.07406423 26.17338026 15.0411454 29.08658892 15 32 C12.69 32 10.38 32 8 32 C7.67 24.08 7.34 16.16 7 8 C4.69 7.34 2.38 6.68 0 6 C0 4.02 0 2.04 0 0 Z " fill="#C0C0C0" transform="translate(0,162)"/>
<path d="M0 0 C-0.33 1.98 -0.66 3.96 -1 6 C-1.639375 5.835 -2.27875 5.67 -2.9375 5.5 C-6.97586652 4.84067485 -10.91807258 4.91996221 -15 5 C-14.45843682 7.52432413 -14.45843682 7.52432413 -13 10 C-10.14418351 11.04123065 -10.14418351 11.04123065 -6.875 11.3125 C-5.77929688 11.45300781 -4.68359375 11.59351563 -3.5546875 11.73828125 C-2.71164063 11.82464844 -1.86859375 11.91101563 -1 12 C-6.69898305 16.74915254 -6.69898305 16.74915254 -10 18 C-14.42763091 17.43983179 -18.08539017 16.02547163 -21.0625 12.6875 C-22.18390608 9.47280257 -22.49312987 7.38146194 -22 4 C-16.86078848 -3.97463856 -8.13332122 -3.33674717 0 0 Z " fill="#BFC1BF" transform="translate(157,164)"/>
<path d="M0 0 C1.5 1.375 1.5 1.375 3 3 C3 3.66 3 4.32 3 5 C4.32 5.33 5.64 5.66 7 6 C7.66 4.02 8.32 2.04 9 0 C10.65 0.33 12.3 0.66 14 1 C14 2.98 14 4.96 14 7 C11.69 7.66 9.38 8.32 7 9 C6.67 14.61 6.34 20.22 6 26 C7.65 26 9.3 26 11 26 C11 26.33 11 26.66 11 27 C7.04 27 3.08 27 -1 27 C-1.0271045 23.95827281 -1.04688964 20.91679003 -1.0625 17.875 C-1.07087891 17.0190625 -1.07925781 16.163125 -1.08789062 15.28125 C-1.10541347 10.72531074 -0.88796352 6.48876048 0 2 C0 1.34 0 0.68 0 0 Z " fill="#BFC3C0" transform="translate(118,161)"/>
<path d="M0 0 C1.8125 0.75 1.8125 0.75 2.8125 2.75 C3.1875 6.0625 3.1875 6.0625 2.8125 9.75 C0.6397578 12.38016161 -1.13423788 14.22336894 -4.1875 15.75 C-6.30985807 15.8729938 -8.43661463 15.92555682 -10.5625 15.9375 C-11.70460937 15.95167969 -12.84671875 15.96585938 -14.0234375 15.98046875 C-17.02686816 15.76170034 -18.66675934 15.32080637 -21.1875 13.75 C-20.8575 12.1 -20.5275 10.45 -20.1875 8.75 C-15.2375 8.75 -10.2875 8.75 -5.1875 8.75 C-4.8575 7.43 -4.5275 6.11 -4.1875 4.75 C-4.8475 4.42 -5.5075 4.09 -6.1875 3.75 C-6.1875 3.09 -6.1875 2.43 -6.1875 1.75 C-3.9127187 0.36888278 -2.68578639 -0.30694702 0 0 Z " fill="#3A883A" transform="translate(155.1875,178.25)"/>
<path d="M0 0 C0 0.99 0 1.98 0 3 C-0.96679688 3.30744141 -0.96679688 3.30744141 -1.953125 3.62109375 C-4.30617299 4.86365517 -4.30617299 4.86365517 -4.609375 7.78515625 C-4.67898437 9.40744141 -4.67898437 9.40744141 -4.75 11.0625 C-4.80671875 12.14660156 -4.8634375 13.23070312 -4.921875 14.34765625 C-5.0425634 17.68936843 -5.0425634 17.68936843 -4 21 C-2.88625 20.938125 -1.7725 20.87625 -0.625 20.8125 C1.169375 20.9053125 1.169375 20.9053125 3 21 C3.66 21.99 4.32 22.98 5 24 C-6.70903934 24.52168987 -16.77395408 23.38443376 -28 20 C-24.87819599 19.03338637 -22.47916205 19.01011091 -19.25 19.4375 C-18.45078125 19.53933594 -17.6515625 19.64117187 -16.828125 19.74609375 C-16.22484375 19.82988281 -15.6215625 19.91367188 -15 20 C-15 20.66 -15 21.32 -15 22 C-13.35 21.67 -11.7 21.34 -10 21 C-10.66 20.67 -11.32 20.34 -12 20 C-11.71125 19.46375 -11.4225 18.9275 -11.125 18.375 C-9.83288192 15.64719516 -8.91441408 12.87387282 -8 10 C-7.34 10 -6.68 10 -6 10 C-6.33 9.34 -6.66 8.68 -7 8 C-10.3 8 -13.6 8 -17 8 C-17 7.34 -17 6.68 -17 6 C-18.32 5.34 -19.64 4.68 -21 4 C-20.11957031 4.04640625 -19.23914063 4.0928125 -18.33203125 4.140625 C-16.58986328 4.19476563 -16.58986328 4.19476563 -14.8125 4.25 C-13.08966797 4.31960937 -13.08966797 4.31960937 -11.33203125 4.390625 C-6.47361074 3.82105636 -4.73070706 0 0 0 Z " fill="#0FAA4C" transform="translate(115,190)"/>
<path d="M0 0 C2.31 0 4.62 0 7 0 C7.88252549 11.16231317 7.88252549 11.16231317 6.05078125 14.9765625 C2.80276759 18.15942976 -0.4516322 18.26683943 -4.875 18.3125 C-6.5846456 18.23271654 -8.29395413 18.1366051 -10 18 C-10 15.69 -10 13.38 -10 11 C-6.7 11 -3.4 11 0 11 C0 7.37 0 3.74 0 0 Z " fill="#C0C2C1" transform="translate(201,176)"/>
<path d="M0 0 C0 3.63 0 7.26 0 11 C2.64 11 5.28 11 8 11 C8 12.98 8 14.96 8 17 C5.69 17 3.38 17 1 17 C1 18.32 1 19.64 1 21 C-2.44428265 19.55218207 -4.36130962 17.72305391 -6.75 14.875 C-7.36359375 14.15054688 -7.9771875 13.42609375 -8.609375 12.6796875 C-9.06828125 12.12539062 -9.5271875 11.57109375 -10 11 C-8.68 10.67 -7.36 10.34 -6 10 C-6.061875 8.72125 -6.12375 7.4425 -6.1875 6.125 C-6.29296875 3.9453125 -6.29296875 3.9453125 -6 2 C-3 0 -3 0 0 0 Z " fill="#BBBFBD" transform="translate(76,152)"/>
<path d="M0 0 C0.33 0 0.66 0 1 0 C1.04898438 1.02480469 1.09796875 2.04960937 1.1484375 3.10546875 C1.22351071 4.4661706 1.29905655 5.82684644 1.375 7.1875 C1.4059375 7.86103516 1.436875 8.53457031 1.46875 9.22851562 C1.7002806 13.18383012 2.15155965 16.47234272 4 20 C6.33942344 21.7536564 6.33942344 21.7536564 9 23 C9.763125 23.391875 10.52625 23.78375 11.3125 24.1875 C11.869375 24.455625 12.42625 24.72375 13 25 C11.02 25.99 11.02 25.99 9 27 C2.91583598 23.32654248 0.96798487 20.83006515 -1 14 C-1.66 14 -2.32 14 -3 14 C-3.309375 15.5778125 -3.309375 15.5778125 -3.625 17.1875 C-4.64224409 20.56914928 -6.05347327 22.9381365 -8.9453125 25.125 C-13.33026241 26.9923551 -18.35353754 26.6607993 -23 26 C-23.66 25.34 -24.32 24.68 -25 24 C-23.67935547 23.94392578 -23.67935547 23.94392578 -22.33203125 23.88671875 C-20.58986328 23.78810547 -20.58986328 23.78810547 -18.8125 23.6875 C-17.66394531 23.62949219 -16.51539063 23.57148438 -15.33203125 23.51171875 C-11.82000728 22.97235751 -9.83700902 22.1005277 -7 20 C-5.47153339 16.94306678 -5.76757555 14.37015453 -6 11 C-7.44438783 8.79904587 -7.44438783 8.79904587 -9 7 C-8.43410156 6.57847656 -7.86820313 6.15695313 -7.28515625 5.72265625 C-6.55167969 5.17480469 -5.81820312 4.62695312 -5.0625 4.0625 C-4.33160156 3.51722656 -3.60070312 2.97195312 -2.84765625 2.41015625 C-1.0865547 1.13092062 -1.0865547 1.13092062 0 0 Z " fill="#6EBC62" transform="translate(163,170)"/>
<path d="M0 0 C1.49080078 0.02707031 1.49080078 0.02707031 3.01171875 0.0546875 C3.77097656 0.07789063 4.53023437 0.10109375 5.3125 0.125 C5.3125 2.105 5.3125 4.085 5.3125 6.125 C2.6725 6.455 0.0325 6.785 -2.6875 7.125 C-3.0175 10.425 -3.3475 13.725 -3.6875 17.125 C-5.9975 17.125 -8.3075 17.125 -10.6875 17.125 C-10.74179959 15.37534642 -10.78042823 13.62520213 -10.8125 11.875 C-10.84730469 10.41320312 -10.84730469 10.41320312 -10.8828125 8.921875 C-10.68179463 6.04329909 -10.27911629 4.50715418 -8.6875 2.125 C-5.26655758 -0.15562828 -4.00562778 -0.09425007 0 0 Z " fill="#4D9137" transform="translate(192.6875,162.875)"/>
<path d="M0 0 C1.03253906 0.00676758 1.03253906 0.00676758 2.0859375 0.01367188 C3.76566335 0.02533664 5.44534375 0.04326729 7.125 0.0625 C7.95184295 4.87043863 8.13786859 9.14602742 7.6875 14 C7.58566406 15.14339844 7.48382813 16.28679688 7.37890625 17.46484375 C7.29511719 18.32207031 7.21132812 19.17929687 7.125 20.0625 C8.445 20.3925 9.765 20.7225 11.125 21.0625 C8.815 21.3925 6.505 21.7225 4.125 22.0625 C3.795 23.0525 3.465 24.0425 3.125 25.0625 C0.155 25.3925 -2.815 25.7225 -5.875 26.0625 C-5.875 25.4025 -5.875 24.7425 -5.875 24.0625 C-3.235 24.0625 -0.595 24.0625 2.125 24.0625 C2.125 23.4025 2.125 22.7425 2.125 22.0625 C0.805 21.7325 -0.515 21.4025 -1.875 21.0625 C-0.225 20.7325 1.425 20.4025 3.125 20.0625 C3.125 13.7925 3.125 7.5225 3.125 1.0625 C-6.28 2.0525 -6.28 2.0525 -15.875 3.0625 C-11.80207763 -1.01042237 -5.45252232 -0.06868487 0 0 Z " fill="#20AA4F" transform="translate(106.875,31.9375)"/>
<path d="M0 0 C3.4375 0.8125 3.4375 0.8125 7 2 C7.33 2.99 7.66 3.98 8 5 C12.29 5.33 16.58 5.66 21 6 C21 7.32 21 8.64 21 10 C16.2357306 12.80251141 11.38149328 12.66969694 6 12 C2.99802536 10.19881522 1.54833634 9.09667268 0 6 C-0.039992 4.00039988 -0.04346799 1.99952758 0 0 Z " fill="#067F3B" transform="translate(88,182)"/>
<path d="M0 0 C2.64 0 5.28 0 8 0 C8.66 5.28 9.32 10.56 10 16 C10.99 16.33 11.98 16.66 13 17 C13 18.32 13 19.64 13 21 C13.66 21 14.32 21 15 21 C14.67 22.32 14.34 23.64 14 25 C7.1212628 18.08467377 2.55785736 10.52173864 -2 2 C-1.34 1.34 -0.68 0.68 0 0 Z " fill="#069F60" transform="translate(37,161)"/>
<path d="M0 0 C0.98097656 0.13277344 1.96195312 0.26554688 2.97265625 0.40234375 C12.30879784 1.634584 21.59593906 2.48655989 31 3 C30.67 5.31 30.34 7.62 30 10 C25.05 11.485 25.05 11.485 20 13 C19 8 19 8 20 5 C18.948125 5.639375 17.89625 6.27875 16.8125 6.9375 C13.89171588 8.61754452 11.3828257 9.58996052 8 10 C9.96382007 8.49440461 11.78263366 7.10868317 14 6 C14 5.34 14 4.68 14 4 C9.71 3.67 5.42 3.34 1 3 C0.67 2.01 0.34 1.02 0 0 Z " fill="#50B064" transform="translate(95,185)"/>
<path d="M0 0 C2.0019305 9.3030888 2.0019305 9.3030888 -0.3515625 13.2890625 C-2.16658462 15.1658726 -3.74435552 16.68083067 -6 18 C-7.32 18 -8.64 18 -10 18 C-10 15.69 -10 13.38 -10 11 C-9.01 11 -8.02 11 -7 11 C-7.103125 9.741875 -7.20625 8.48375 -7.3125 7.1875 C-7.32421875 4.98046875 -7.32421875 4.98046875 -7 3 C-4.59140121 0.97170628 -3.16955691 0 0 0 Z " fill="#BFC2BE" transform="translate(171,151)"/>
<path d="M0 0 C0.515625 0.391875 1.03125 0.78375 1.5625 1.1875 C0.6875 5.0625 0.6875 5.0625 -0.4375 6.1875 C-2.3937593 6.28677286 -4.35372909 6.31719729 -6.3125 6.3125 C-7.38242188 6.31507813 -8.45234375 6.31765625 -9.5546875 6.3203125 C-12.4375 6.1875 -12.4375 6.1875 -15.4375 5.1875 C-15.60437448 7.60395782 -15.60437448 7.60395782 -15.4375 10.1875 C-14.7775 10.8475 -14.1175 11.5075 -13.4375 12.1875 C-15.0875 11.8575 -16.7375 11.5275 -18.4375 11.1875 C-18.1075 9.5375 -17.7775 7.8875 -17.4375 6.1875 C-18.7575 5.8575 -20.0775 5.5275 -21.4375 5.1875 C-20.65246094 5.00574219 -19.86742187 4.82398438 -19.05859375 4.63671875 C-12.07564659 3.01177639 -12.07564659 3.01177639 -5.4375 0.375 C-2.4375 -0.8125 -2.4375 -0.8125 0 0 Z " fill="#5FB35E" transform="translate(150.4375,181.8125)"/>
<path d="M0 0 C1.875 1.1875 1.875 1.1875 3 3 C3 4.65 3 6.3 3 8 C-0.96 8 -4.92 8 -9 8 C-9 3 -9 3 -7.875 1.1875 C-5.12844028 -0.55198782 -3.18153026 -0.39769128 0 0 Z " fill="#F6F6F6" transform="translate(103,168)"/>
<path d="M0 0 C0 1.65 0 3.3 0 5 C-1.95421035 5.86355778 -3.91351347 6.71559934 -5.875 7.5625 C-6.96554688 8.03816406 -8.05609375 8.51382812 -9.1796875 9.00390625 C-10.11039063 9.33261719 -11.04109375 9.66132813 -12 10 C-12.66 9.67 -13.32 9.34 -14 9 C-13.01 7.68 -12.02 6.36 -11 5 C-12.32 4.34 -13.64 3.68 -15 3 C-13.25531628 2.29911844 -11.50398839 1.61475991 -9.75 0.9375 C-8.77546875 0.55464844 -7.8009375 0.17179687 -6.796875 -0.22265625 C-3.95992605 -1.01113787 -2.70590448 -1.02437812 0 0 Z " fill="#88C862" transform="translate(248,16)"/>
<path d="M0 0 C0.33 0 0.66 0 1 0 C1 3.96 1 7.92 1 12 C3.31 12 5.62 12 8 12 C7.98839844 11.28972656 7.97679687 10.57945312 7.96484375 9.84765625 C7.95130859 8.46900391 7.95130859 8.46900391 7.9375 7.0625 C7.92589844 6.14597656 7.91429687 5.22945312 7.90234375 4.28515625 C8 2 8 2 9 1 C11.33297433 0.95907063 13.66705225 0.95758277 16 1 C14.40956621 6.08938811 11.2553049 9.87456643 8 14 C5.36 13.67 2.72 13.34 0 13 C0 8.71 0 4.42 0 0 Z " fill="#7DC55F" transform="translate(181,168)"/>
<path d="M0 0 C0.33 0 0.66 0 1 0 C1 2.64 1 5.28 1 8 C-1.31 8 -3.62 8 -6 8 C-5.67 12.62 -5.34 17.24 -5 22 C-2.525 22.99 -2.525 22.99 0 24 C0 24.66 0 25.32 0 26 C1.32 26.33 2.64 26.66 4 27 C2.68 28.65 1.36 30.3 0 32 C-0.66 31.67 -1.32 31.34 -2 31 C-1.67 29.35 -1.34 27.7 -1 26 C-1.78375 25.896875 -2.5675 25.79375 -3.375 25.6875 C-6 25 -6 25 -8 22 C-8.14221065 19.39754502 -8.18802932 16.90882316 -8.125 14.3125 C-8.11597656 13.61060547 -8.10695312 12.90871094 -8.09765625 12.18554688 C-8.07413704 10.45688475 -8.03826713 8.72839855 -8 7 C-5.36 7 -2.72 7 0 7 C0 4.69 0 2.38 0 0 Z " fill="#71C05C" transform="translate(179,162)"/>
<path d="M0 0 C0.33 0.99 0.66 1.98 1 3 C2.11375 2.938125 3.2275 2.87625 4.375 2.8125 C6.169375 2.9053125 6.169375 2.9053125 8 3 C8.99 4.485 8.99 4.485 10 6 C-1.70903934 6.52168987 -11.77395408 5.38443376 -23 2 C-19.87819599 1.03338637 -17.47916205 1.01011091 -14.25 1.4375 C-13.05117187 1.59025391 -13.05117187 1.59025391 -11.828125 1.74609375 C-11.22484375 1.82988281 -10.6215625 1.91367188 -10 2 C-10 2.66 -10 3.32 -10 4 C-6.7 3.67 -3.4 3.34 0 3 C0 2.01 0 1.02 0 0 Z " fill="#2DAB58" transform="translate(110,208)"/>
<path d="M0 0 C1.32 1.32 2.64 2.64 4 4 C3.67 4.33 3.34 4.66 3 5 C2.95919217 6.99958364 2.95745644 9.00045254 3 11 C4.98 11.66 6.96 12.32 9 13 C9 15.97 9 18.94 9 22 C6.36 22 3.72 22 1 22 C1 21.67 1 21.34 1 21 C2.98 21 4.96 21 7 21 C7 19.02 7 17.04 7 15 C5.824375 14.8453125 5.824375 14.8453125 4.625 14.6875 C2 14 2 14 0 11 C-0.1953125 8.30078125 -0.1953125 8.30078125 -0.125 5.3125 C-0.10695313 4.31863281 -0.08890625 3.32476562 -0.0703125 2.30078125 C-0.04710938 1.54152344 -0.02390625 0.78226563 0 0 Z " fill="#20A75E" transform="translate(76,173)"/>
<path d="M0 0 C1.98 0 3.96 0 6 0 C6 4.29 6 8.58 6 13 C0.04081633 7.04081633 0.04081633 7.04081633 -0.125 2.8125 C-0.08375 1.884375 -0.0425 0.95625 0 0 Z " fill="#03733C" transform="translate(38,163)"/>
<path d="M0 0 C1.57619796 3.15239592 0.68832865 5.61571748 0 9 C-2.33333333 13.66666667 -2.33333333 13.66666667 -5 15 C-5 14.01 -5 13.02 -5 12 C-6.32 11.67 -7.64 11.34 -9 11 C-6.03 7.37 -3.06 3.74 0 0 Z " fill="#07A84E" transform="translate(141,94)"/>
<path d="M0 0 C2.20132619 2.93510158 3.95504171 5.5660226 5.6875 8.75 C6.12449219 9.54921875 6.56148438 10.3484375 7.01171875 11.171875 C7.33785156 11.77515625 7.66398437 12.3784375 8 13 C5.36 13 2.72 13 0 13 C0 8.71 0 4.42 0 0 Z " fill="#17A666" transform="translate(58,150)"/>
<path d="M0 0 C0.33 0 0.66 0 1 0 C1.04898438 1.02480469 1.09796875 2.04960937 1.1484375 3.10546875 C1.22351071 4.4661706 1.29905655 5.82684644 1.375 7.1875 C1.42140625 8.19780273 1.42140625 8.19780273 1.46875 9.22851562 C1.7002806 13.18383012 2.15155965 16.47234272 4 20 C6.33942344 21.7536564 6.33942344 21.7536564 9 23 C9.763125 23.391875 10.52625 23.78375 11.3125 24.1875 C11.869375 24.455625 12.42625 24.72375 13 25 C11.02 25.99 11.02 25.99 9 27 C7.8676025 26.26121661 6.7443453 25.50841355 5.625 24.75 C4.99851563 24.33234375 4.37203125 23.9146875 3.7265625 23.484375 C1.64645593 21.69604808 0.88183317 20.61022619 0 18 C-0.13958857 15.37573495 -0.18931369 12.86707253 -0.125 10.25 C-0.11597656 9.55261719 -0.10695312 8.85523438 -0.09765625 8.13671875 C-0.07419888 6.42433042 -0.03833104 4.71211996 0 3 C-0.66 2.67 -1.32 2.34 -2 2 C-1.34 1.34 -0.68 0.68 0 0 Z " fill="#72BF64" transform="translate(163,170)"/>
<path d="M0 0 C-1.65 0.66 -3.3 1.32 -5 2 C-5 4.97 -5 7.94 -5 11 C-6.32 11 -7.64 11 -9 11 C-9 12.98 -9 14.96 -9 17 C-8.01 17 -7.02 17 -6 17 C-6 18.65 -6 20.3 -6 22 C-6.33 20.68 -6.66 19.36 -7 18 C-7.99 18 -8.98 18 -10 18 C-10 15.03 -10 12.06 -10 9 C-9.34 8.67 -8.68 8.34 -8 8 C-7.71125 6.865625 -7.4225 5.73125 -7.125 4.5625 C-6 1 -6 1 -4 -0.5 C-2 -1 -2 -1 0 0 Z " fill="#00A55F" transform="translate(57,152)"/>
<path d="M0 0 C0.99 0 1.98 0 3 0 C3 3.3 3 6.6 3 10 C2.01 10.33 1.02 10.66 0 11 C-1.77084117 8.29165469 -2.01052504 7.10735541 -1.6875 3.8125 C-1 1 -1 1 0 0 Z " fill="#5BB850" transform="translate(160,173)"/>
<path d="M0 0 C0 0.99 0 1.98 0 3 C-3.93238517 6.19833994 -7.22768323 6.3804427 -12.1875 6.3125 C-13.41855469 6.30863281 -14.64960937 6.30476562 -15.91796875 6.30078125 C-19 6 -19 6 -21 4 C-20.11957031 4.04640625 -19.23914063 4.0928125 -18.33203125 4.140625 C-16.58986328 4.19476563 -16.58986328 4.19476563 -14.8125 4.25 C-13.08966797 4.31960937 -13.08966797 4.31960937 -11.33203125 4.390625 C-6.47361074 3.82105636 -4.73070706 0 0 0 Z " fill="#28AB54" transform="translate(115,190)"/>
<path d="M0 0 C1.65 0.33 3.3 0.66 5 1 C5 2.98 5 4.96 5 7 C0.545 7.495 0.545 7.495 -4 8 C-4 7.34 -4 6.68 -4 6 C-3.34 6 -2.68 6 -2 6 C-1.34 4.02 -0.68 2.04 0 0 Z " fill="#BCBEBB" transform="translate(127,161)"/>
<path d="M0 0 C0.33 0.99 0.66 1.98 1 3 C-0.73046875 5.62890625 -0.73046875 5.62890625 -3.1875 8.5625 C-3.98542969 9.53316406 -4.78335938 10.50382812 -5.60546875 11.50390625 C-7.73174029 13.72036222 -9.17930198 14.90414261 -12 16 C-12 16.66 -12 17.32 -12 18 C-12.66 18 -13.32 18 -14 18 C-12.3867348 14.12266375 -9.85050638 11.48273574 -7 8.4375 C-4.42555742 5.67970322 -2.09363537 3.14045306 0 0 Z " fill="#DEF5DA" transform="translate(198,56)"/>
<path d="M0 0 C0.8971875 0.5259375 0.8971875 0.5259375 1.8125 1.0625 C0.9375 4.9375 0.9375 4.9375 -0.1875 6.0625 C-2.85808851 6.20365161 -5.51182238 6.10497107 -8.1875 6.0625 C-7.5275 5.0725 -6.8675 4.0825 -6.1875 3.0625 C-5.8575 2.0725 -5.5275 1.0825 -5.1875 0.0625 C-2.1875 -0.9375 -2.1875 -0.9375 0 0 Z " fill="#59B357" transform="translate(150.1875,181.9375)"/>
<path d="M0 0 C4.95 0 9.9 0 15 0 C15 2.31 15 4.62 15 7 C14.67 7 14.34 7 14 7 C14 5.02 14 3.04 14 1 C12.22880197 1.14133499 10.45804713 1.28823208 8.6875 1.4375 C7.70136719 1.51871094 6.71523437 1.59992188 5.69921875 1.68359375 C2.90624401 1.91812559 2.90624401 1.91812559 0 3 C-0.69937532 4.31647119 -1.36729133 5.65022151 -2 7 C-2.99 7.495 -2.99 7.495 -4 8 C-4 6.68 -4 5.36 -4 4 C-3.34 4 -2.68 4 -2 4 C-2 3.34 -2 2.68 -2 2 C-1.34 2 -0.68 2 0 2 C0 1.34 0 0.68 0 0 Z " fill="#6EB856" transform="translate(184,162)"/>
<path d="M0 0 C2.31 0 4.62 0 7 0 C7 1.65 7 3.3 7 5 C4.69 5 2.38 5 0 5 C0 3.35 0 1.7 0 0 Z " fill="#29883D" transform="translate(117,189)"/>
<path d="M0 0 C0.33 0.66 0.66 1.32 1 2 C0.67 2.99 0.34 3.98 0 5 C-0.99 5 -1.98 5 -3 5 C-3 6.98 -3 8.96 -3 11 C-3.33 10.34 -3.66 9.68 -4 9 C-4.66 9 -5.32 9 -6 9 C-6 9.66 -6 10.32 -6 11 C-7.32 10.67 -8.64 10.34 -10 10 C-6.7 6.7 -3.4 3.4 0 0 Z " fill="#47B061" transform="translate(158,76)"/>
<path d="M0 0 C0.66 0 1.32 0 2 0 C1.67 1.32 1.34 2.64 1 4 C-1.07553648 4.5534764 -2.84365964 5 -5 5 C-5.33 6.65 -5.66 8.3 -6 10 C-7.32 9.34 -8.64 8.68 -10 8 C-9.09650406 6.98808455 -8.17659153 5.99081074 -7.25 5 C-6.48429688 4.1646875 -6.48429688 4.1646875 -5.703125 3.3125 C-4 2 -4 2 0 2 C0 1.34 0 0.68 0 0 Z " fill="#24AC55" transform="translate(152,85)"/>
<path d="M0 0 C0 2.64 0 5.28 0 8 C-1.98 8.33 -3.96 8.66 -6 9 C-6.33 8.34 -6.66 7.68 -7 7 C-5.35 7 -3.7 7 -2 7 C-2 5.02 -2 3.04 -2 1 C-3.32 0.67 -4.64 0.34 -6 0 C-3.50907189 -1.24546405 -2.58919267 -0.7767578 0 0 Z " fill="#1AA965" transform="translate(67,187)"/>
<path d="M0 0 C0.71484375 1.734375 0.71484375 1.734375 1 4 C-0.43359375 6.140625 -0.43359375 6.140625 -2.4375 8.25 C-3.09621094 8.95640625 -3.75492188 9.6628125 -4.43359375 10.390625 C-4.95050781 10.92171875 -5.46742188 11.4528125 -6 12 C-6.71484375 10.265625 -6.71484375 10.265625 -7 8 C-5.56640625 5.859375 -5.56640625 5.859375 -3.5625 3.75 C-2.57443359 2.69039063 -2.57443359 2.69039063 -1.56640625 1.609375 C-1.04949219 1.07828125 -0.53257812 0.5471875 0 0 Z " fill="#88C76E" transform="translate(189,96)"/>
<path d="M0 0 C-2.72542267 1.36271133 -4.96087274 1.16923601 -8 1.1875 C-9.0725 1.20167969 -10.145 1.21585938 -11.25 1.23046875 C-14 1 -14 1 -16 -1 C-13.89722877 -1.22197585 -11.79267698 -1.42713637 -9.6875 -1.625 C-8.51574219 -1.74101562 -7.34398437 -1.85703125 -6.13671875 -1.9765625 C-3 -2 -3 -2 0 0 Z " fill="#5AB758" transform="translate(154,195)"/>
<path d="M0 0 C0.99 0.33 1.98 0.66 3 1 C-0.3 3.97 -3.6 6.94 -7 10 C-7.33 9.01 -7.66 8.02 -8 7 C-6.625 5.5 -6.625 5.5 -5 4 C-4.34 4 -3.68 4 -3 4 C-2.67 3.01 -2.34 2.02 -2 1 C-1.34 0.67 -0.68 0.34 0 0 Z " fill="#74BE5F" transform="translate(217,36)"/>
<path d="M0 0 C0.99 0.33 1.98 0.66 3 1 C1.61811547 4.21043882 0.07578097 6.04936365 -2.625 8.25 C-3.25664062 8.77078125 -3.88828125 9.2915625 -4.5390625 9.828125 C-5.02117187 10.21484375 -5.50328125 10.6015625 -6 11 C-5.67 9.35 -5.34 7.7 -5 6 C-3.68 5.67 -2.36 5.34 -1 5 C-0.67 3.35 -0.34 1.7 0 0 Z " fill="#76BD69" transform="translate(163,42)"/>
<path d="M0 0 C0 0.66 0 1.32 0 2 C-0.99 2 -1.98 2 -3 2 C-3.2475 2.639375 -3.495 3.27875 -3.75 3.9375 C-5 6 -5 6 -7.0625 6.625 C-7.701875 6.74875 -8.34125 6.8725 -9 7 C-9.33 7.66 -9.66 8.32 -10 9 C-10.99 8.67 -11.98 8.34 -13 8 C-11.5433323 6.85204994 -10.08461063 5.70670581 -8.625 4.5625 C-7.40683594 3.60537109 -7.40683594 3.60537109 -6.1640625 2.62890625 C-2.67146283 0 -2.67146283 0 0 0 Z " fill="#7EC26F" transform="translate(212,31)"/>
<path d="M0 0 C0.99 0.33 1.98 0.66 3 1 C3 2.32 3 3.64 3 5 C3.66 5 4.32 5 5 5 C4.67 6.32 4.34 7.64 4 9 C1.4375 6.75 1.4375 6.75 -1 4 C-0.8125 1.6875 -0.8125 1.6875 0 0 Z " fill="#0E9D58" transform="translate(47,177)"/>
<path d="M0 0 C-0.50603992 2.16874252 -0.99983813 3.99967627 -2 6 C-3.32 5.67 -4.64 5.34 -6 5 C-6.33 3.68 -6.66 2.36 -7 1 C-2.25 0 -2.25 0 0 0 Z " fill="#299258" transform="translate(127,161)"/>
<path d="M0 0 C0.33 0.66 0.66 1.32 1 2 C-2.625 7.875 -2.625 7.875 -6 9 C-5.67 9.99 -5.34 10.98 -5 12 C-6.32 11.67 -7.64 11.34 -9 11 C-6.03 7.37 -3.06 3.74 0 0 Z " fill="#38AF67" transform="translate(141,94)"/>
<path d="M0 0 C5.28 0.66 10.56 1.32 16 2 C16 2.33 16 2.66 16 3 C11.05 3 6.1 3 1 3 C0.67 2.01 0.34 1.02 0 0 Z " fill="#56A76D" transform="translate(95,185)"/>
<path d="M0 0 C0.66 0.33 1.32 0.66 2 1 C0.66654496 4.59007126 -0.8943231 7.79570907 -3 11 C-3.33 11 -3.66 11 -4 11 C-3.67 8.69 -3.34 6.38 -3 4 C-2.01 4 -1.02 4 0 4 C0 2.68 0 1.36 0 0 Z " fill="#3BAB58" transform="translate(152,112)"/>
<path d="M0 0 C0.6484375 1.8046875 0.6484375 1.8046875 1 4 C-1.375 7.125 -1.375 7.125 -4 10 C-4.33 10.66 -4.66 11.32 -5 12 C-5.66 12 -6.32 12 -7 12 C-5.44298069 7.32894208 -2.91552627 3.91294315 0 0 Z " fill="#D8F3D9" transform="translate(164,99)"/>
<path d="M0 0 C0.6875 1.625 0.6875 1.625 1 4 C-1.33333333 9.66666667 -1.33333333 9.66666667 -4 11 C-3.48964169 6.6109185 -2.47785723 3.66291938 0 0 Z " fill="#BDE8CD" transform="translate(133,149)"/>
<path d="M0 0 C-0.20625 0.78375 -0.4125 1.5675 -0.625 2.375 C-0.74875 3.24125 -0.8725 4.1075 -1 5 C-0.34 5.66 0.32 6.32 1 7 C-0.65 6.67 -2.3 6.34 -4 6 C-3.67 4.35 -3.34 2.7 -3 1 C-4.32 0.67 -5.64 0.34 -7 0 C-3.86650268 -1.04449911 -3.01031744 -0.93423645 0 0 Z " fill="#6FBE75" transform="translate(136,187)"/>
<path d="M0 0 C0.99 0 1.98 0 3 0 C2.67 2.64 2.34 5.28 2 8 C1.34 8 0.68 8 0 8 C0 5.36 0 2.72 0 0 Z " fill="#15AC4B" transform="translate(112,194)"/>
<path d="M0 0 C0.33 0.66 0.66 1.32 1 2 C0.67 2.99 0.34 3.98 0 5 C-3.5625 6.1875 -3.5625 6.1875 -7 7 C-4.66666667 4.66666667 -2.33333333 2.33333333 0 0 Z " fill="#5CB76A" transform="translate(169,65)"/>
<path d="M0 0 C1.65 0.33 3.3 0.66 5 1 C3.02 3.97 3.02 3.97 1 7 C0.34 6.67 -0.32 6.34 -1 6 C-0.67 4.02 -0.34 2.04 0 0 Z " fill="#90C97C" transform="translate(178,187)"/>
<path d="M0 0 C0.33 0 0.66 0 1 0 C1.125 2.875 1.125 2.875 1 6 C0.34 6.66 -0.32 7.32 -1 8 C-1.99 8 -2.98 8 -4 8 C-4 7.34 -4 6.68 -4 6 C-3.34 6 -2.68 6 -2 6 C-1.34 4.02 -0.68 2.04 0 0 Z " fill="#A1BAA6" transform="translate(127,161)"/>
<path d="M0 0 C0 0.66 0 1.32 0 2 C-4.15267176 5.11450382 -4.15267176 5.11450382 -7.3125 4.6875 C-7.869375 4.460625 -8.42625 4.23375 -9 4 C-2.25 0 -2.25 0 0 0 Z " fill="#82C468" transform="translate(224,24)"/>
<path d="M0 0 C-1.25535985 3.76607955 -2.52883585 4.26441793 -6 6 C-6.99 6 -7.98 6 -9 6 C-7.8803014 4.99406757 -6.7540588 3.9954151 -5.625 3 C-4.68527344 2.1646875 -4.68527344 2.1646875 -3.7265625 1.3125 C-2 0 -2 0 0 0 Z " fill="#E7F6D7" transform="translate(226,33)"/>
<path d="M0 0 C0 0.66 0 1.32 0 2 C-3.13498292 3.85776765 -5.37471432 4.20140476 -9 4 C-6.31059578 0.90718514 -4.07621501 0 0 0 Z " fill="#8DC971" transform="translate(233,20)"/>
</svg>
